<mxfile host="app.diagrams.net" agent="Mozilla/5.0 (Windows NT 10.0; Win64; x64) AppleWebKit/537.36 (KHTML, like Gecko) Chrome/128.0.0.0 Safari/537.36 OPR/114.0.0.0" version="24.8.6">
  <diagram name="PÃ¡gina-1" id="ZYrXFXTMh5Co8lFkQm1W">
    <mxGraphModel dx="1517" dy="1969" grid="1" gridSize="10" guides="1" tooltips="1" connect="1" arrows="1" fold="1" page="1" pageScale="1" pageWidth="827" pageHeight="1169" math="0" shadow="0">
      <root>
        <mxCell id="0" />
        <mxCell id="1" parent="0" />
        <object placeholders="1" c4Name="Geek Shopping" c4Type="ContainerScopeBoundary" c4Application="Monolith" label="&lt;font style=&quot;font-size:20px&quot;&gt;&lt;b&gt;&lt;div style=&quot;text-align: left&quot;&gt;%c4Name%&lt;/div&gt;&lt;/b&gt;&lt;/font&gt;&lt;div style=&quot;text-align: left&quot;&gt;[%c4Application%]&lt;/div&gt;" id="eIzoueygHuHwb89tyksf-1">
          <mxCell style="rounded=1;fontSize=11;whiteSpace=wrap;html=1;dashed=1;arcSize=20;fillColor=none;strokeColor=#666666;fontColor=#333333;labelBackgroundColor=none;align=left;verticalAlign=bottom;labelBorderColor=none;spacingTop=0;spacing=10;dashPattern=8 4;metaEdit=1;rotatable=0;perimeter=rectanglePerimeter;noLabel=0;labelPadding=0;allowArrows=0;connectable=0;expand=0;recursiveResize=0;editable=1;pointerEvents=0;absoluteArcSize=1;points=[[0.25,0,0],[0.5,0,0],[0.75,0,0],[1,0.25,0],[1,0.5,0],[1,0.75,0],[0.75,1,0],[0.5,1,0],[0.25,1,0],[0,0.75,0],[0,0.5,0],[0,0.25,0]];" vertex="1" parent="1">
            <mxGeometry x="140" y="160" width="400" height="460" as="geometry" />
          </mxCell>
        </object>
        <mxCell id="eIzoueygHuHwb89tyksf-3" value="" style="shape=actor;whiteSpace=wrap;html=1;fillColor=#99CCFF;strokeColor=#10739e;" vertex="1" parent="1">
          <mxGeometry x="320" y="30" width="40" height="50" as="geometry" />
        </mxCell>
        <mxCell id="eIzoueygHuHwb89tyksf-4" value="&lt;font style=&quot;font-size: 18px;&quot;&gt;Cliente&lt;/font&gt;" style="text;html=1;align=center;verticalAlign=middle;resizable=0;points=[];autosize=1;strokeColor=none;fillColor=none;" vertex="1" parent="1">
          <mxGeometry x="300" y="-5" width="80" height="40" as="geometry" />
        </mxCell>
        <mxCell id="eIzoueygHuHwb89tyksf-5" value="&lt;font style=&quot;font-size: 18px;&quot;&gt;View Layer&lt;/font&gt;" style="rounded=1;whiteSpace=wrap;html=1;fillColor=#FFB6C1;strokeColor=#FFB6C1;fontColor=#000000;" vertex="1" parent="1">
          <mxGeometry x="160" y="180" width="360" height="80" as="geometry" />
        </mxCell>
        <mxCell id="eIzoueygHuHwb89tyksf-8" value="&lt;font style=&quot;font-size: 18px;&quot;&gt;Controller Layer&lt;/font&gt;" style="rounded=1;whiteSpace=wrap;html=1;fillColor=#4169e1;strokeColor=#4169e1;" vertex="1" parent="1">
          <mxGeometry x="160" y="280" width="360" height="80" as="geometry" />
        </mxCell>
        <mxCell id="eIzoueygHuHwb89tyksf-9" value="&lt;font style=&quot;font-size: 18px;&quot;&gt;Model Interface&lt;/font&gt;" style="rounded=1;whiteSpace=wrap;html=1;fillColor=#A9A9A9;strokeColor=#A9A9A9;" vertex="1" parent="1">
          <mxGeometry x="160" y="380" width="360" height="80" as="geometry" />
        </mxCell>
        <mxCell id="eIzoueygHuHwb89tyksf-12" value="" style="shape=flexArrow;endArrow=classic;html=1;rounded=0;" edge="1" parent="1">
          <mxGeometry width="50" height="50" relative="1" as="geometry">
            <mxPoint x="370" y="715" as="sourcePoint" />
            <mxPoint x="370" y="630" as="targetPoint" />
          </mxGeometry>
        </mxCell>
        <mxCell id="eIzoueygHuHwb89tyksf-14" value="" style="shape=flexArrow;endArrow=classic;html=1;rounded=0;" edge="1" parent="1">
          <mxGeometry width="50" height="50" relative="1" as="geometry">
            <mxPoint x="300" y="630" as="sourcePoint" />
            <mxPoint x="300" y="710" as="targetPoint" />
          </mxGeometry>
        </mxCell>
        <mxCell id="eIzoueygHuHwb89tyksf-10" value="&lt;font style=&quot;font-size: 18px;&quot;&gt;DATABASE&lt;/font&gt;" style="strokeWidth=2;html=1;shape=mxgraph.flowchart.database;whiteSpace=wrap;fillColor=#f5f5f5;gradientColor=#b3b3b3;strokeColor=#666666;" vertex="1" parent="1">
          <mxGeometry x="230" y="720" width="200" height="80" as="geometry" />
        </mxCell>
        <mxCell id="eIzoueygHuHwb89tyksf-20" value="" style="shape=image;html=1;verticalAlign=top;verticalLabelPosition=bottom;labelBackgroundColor=#ffffff;imageAspect=0;aspect=fixed;image=https://cdn3.iconfinder.com/data/icons/drifting/Me.png" vertex="1" parent="1">
          <mxGeometry x="360" y="690" width="64" height="64" as="geometry" />
        </mxCell>
        <mxCell id="eIzoueygHuHwb89tyksf-21" value="" style="shape=flexArrow;endArrow=classic;html=1;rounded=0;" edge="1" parent="1">
          <mxGeometry width="50" height="50" relative="1" as="geometry">
            <mxPoint x="360" y="160" as="sourcePoint" />
            <mxPoint x="360" y="90" as="targetPoint" />
          </mxGeometry>
        </mxCell>
        <mxCell id="eIzoueygHuHwb89tyksf-23" value="" style="shape=flexArrow;endArrow=classic;html=1;rounded=0;" edge="1" parent="1">
          <mxGeometry width="50" height="50" relative="1" as="geometry">
            <mxPoint x="320" y="90" as="sourcePoint" />
            <mxPoint x="320" y="160" as="targetPoint" />
          </mxGeometry>
        </mxCell>
        <mxCell id="eIzoueygHuHwb89tyksf-25" value="" style="outlineConnect=0;dashed=0;verticalLabelPosition=bottom;verticalAlign=top;align=center;html=1;shape=mxgraph.aws3.android;fillColor=#115193;gradientColor=none;" vertex="1" parent="1">
          <mxGeometry x="490" y="130" width="73.5" height="84" as="geometry" />
        </mxCell>
        <mxCell id="eIzoueygHuHwb89tyksf-26" value="&lt;font style=&quot;font-size: 18px;&quot;&gt;C# .Net Core&lt;/font&gt;" style="text;html=1;align=center;verticalAlign=middle;whiteSpace=wrap;rounded=0;" vertex="1" parent="1">
          <mxGeometry x="460.13" y="100" width="133.25" height="30" as="geometry" />
        </mxCell>
        <mxCell id="eIzoueygHuHwb89tyksf-28" value="&lt;font style=&quot;font-size: 18px;&quot;&gt;Data Layer&lt;/font&gt;" style="rounded=1;whiteSpace=wrap;html=1;fillColor=#ff6347;strokeColor=#ff6347;fillStyle=auto;fontColor=#ffffff;" vertex="1" parent="1">
          <mxGeometry x="160" y="482" width="360" height="80" as="geometry" />
        </mxCell>
      </root>
    </mxGraphModel>
  </diagram>
</mxfile>
